<svg xmlns="http://www.w3.org/2000/svg" viewBox="0 0 900 400" width="900" height="400"><rect width="900" height="400" fill="white" stroke="black" stroke-width="1" /><text x="450" y="25" text-anchor="middle" font-size="16" font-weight="bold">Altimetría - Ruta de La Laguna y Anaga</text><line x1="50" y1="350" x2="850" y2="350" stroke="black" stroke-width="2" /><line x1="50" y1="50" x2="50" y2="350" stroke="black" stroke-width="2" /><text x="450" y="390" text-anchor="middle" font-size="12">Distancia (metros)</text><text x="12" y="200" text-anchor="middle" font-size="12" transform="rotate(-90, 12, 200)">Altitud (metros)</text><polyline points="50.00,350.00 65.29,346.79 85.67,348.40 697.13,146.26 850.00,50.00" fill="none" stroke="red" stroke-width="3" /><circle cx="50.00" cy="350.00" r="4" fill="blue" /><text x="58.00" y="350.00" font-size="10" fill="black">546m</text><text x="50.00" y="365.00" font-size="9" text-anchor="middle" fill="#666">0m</text><circle cx="65.29" cy="346.79" r="4" fill="blue" /><text x="73.29" y="346.79" font-size="10" fill="black">550m</text><text x="65.29" y="365.00" font-size="9" text-anchor="middle" fill="#666">300m</text><circle cx="85.67" cy="348.40" r="4" fill="blue" /><text x="93.67" y="348.40" font-size="10" fill="black">548m</text><text x="85.67" y="365.00" font-size="9" text-anchor="middle" fill="#666">700m</text><circle cx="697.13" cy="146.26" r="4" fill="blue" /><text x="705.13" y="146.26" font-size="10" fill="black">800m</text><text x="697.13" y="365.00" font-size="9" text-anchor="middle" fill="#666">12700m</text><circle cx="850.00" cy="50.00" r="4" fill="blue" /><text x="858.00" y="50.00" font-size="10" fill="black">920m</text><text x="850.00" y="365.00" font-size="9" text-anchor="middle" fill="#666">15700m</text><line x1="50.00" y1="350.00" x2="850.00" y2="350.00" stroke="red" stroke-width="1" stroke-dasharray="5,5" /></svg>