<svg xmlns="http://www.w3.org/2000/svg" viewBox="0 0 900 400" width="900" height="400"><rect width="900" height="400" fill="white" stroke="black" stroke-width="1" /><text x="450" y="25" text-anchor="middle" font-size="16" font-weight="bold">Altimetría - Ruta de Los Gigantes y Masca</text><line x1="50" y1="350" x2="850" y2="350" stroke="black" stroke-width="2" /><line x1="50" y1="50" x2="50" y2="350" stroke="black" stroke-width="2" /><text x="450" y="390" text-anchor="middle" font-size="12">Distancia (metros)</text><text x="12" y="200" text-anchor="middle" font-size="12" transform="rotate(-90, 12, 200)">Altitud (metros)</text><polyline points="50.00,350.00 144.12,289.13 614.71,71.74 661.76,50.00 850.00,267.39" fill="none" stroke="red" stroke-width="3" /><circle cx="50.00" cy="350.00" r="4" fill="blue" /><text x="58.00" y="350.00" font-size="10" fill="black">10m</text><text x="50.00" y="365.00" font-size="9" text-anchor="middle" fill="#666">0m</text><circle cx="144.12" cy="289.13" r="4" fill="blue" /><text x="152.12" y="289.13" font-size="10" fill="black">150m</text><text x="144.12" y="365.00" font-size="9" text-anchor="middle" fill="#666">1000m</text><circle cx="614.71" cy="71.74" r="4" fill="blue" /><text x="622.71" y="71.74" font-size="10" fill="black">650m</text><text x="614.71" y="365.00" font-size="9" text-anchor="middle" fill="#666">6000m</text><circle cx="661.76" cy="50.00" r="4" fill="blue" /><text x="669.76" y="50.00" font-size="10" fill="black">700m</text><text x="661.76" y="365.00" font-size="9" text-anchor="middle" fill="#666">6500m</text><circle cx="850.00" cy="267.39" r="4" fill="blue" /><text x="858.00" y="267.39" font-size="10" fill="black">200m</text><text x="850.00" y="365.00" font-size="9" text-anchor="middle" fill="#666">8500m</text><line x1="50.00" y1="350.00" x2="850.00" y2="350.00" stroke="red" stroke-width="1" stroke-dasharray="5,5" /></svg>