<svg xmlns="http://www.w3.org/2000/svg" viewBox="0 0 900 400" width="900" height="400"><rect width="900" height="400" fill="white" stroke="black" stroke-width="1" /><text x="450" y="25" text-anchor="middle" font-size="16" font-weight="bold">Altimetría - Ruta del Teide</text><line x1="50" y1="350" x2="850" y2="350" stroke="black" stroke-width="2" /><line x1="50" y1="50" x2="50" y2="350" stroke="black" stroke-width="2" /><text x="450" y="390" text-anchor="middle" font-size="12">Distancia (metros)</text><text x="12" y="200" text-anchor="middle" font-size="12" transform="rotate(-90, 12, 200)">Altitud (metros)</text><polyline points="50.00,290.53 223.91,350.00 328.26,290.53 571.74,326.99 850.00,50.00" fill="none" stroke="red" stroke-width="3" /><circle cx="50.00" cy="290.53" r="4" fill="blue" /><text x="58.00" y="290.53" font-size="10" fill="black">2356m</text><text x="50.00" y="365.00" font-size="9" text-anchor="middle" fill="#666">0m</text><circle cx="223.91" cy="350.00" r="4" fill="blue" /><text x="231.91" y="350.00" font-size="10" fill="black">2020m</text><text x="223.91" y="365.00" font-size="9" text-anchor="middle" fill="#666">5000m</text><circle cx="328.26" cy="290.53" r="4" fill="blue" /><text x="336.26" y="290.53" font-size="10" fill="black">2356m</text><text x="328.26" y="365.00" font-size="9" text-anchor="middle" fill="#666">8000m</text><circle cx="571.74" cy="326.99" r="4" fill="blue" /><text x="579.74" y="326.99" font-size="10" fill="black">2150m</text><text x="571.74" y="365.00" font-size="9" text-anchor="middle" fill="#666">15000m</text><circle cx="850.00" cy="50.00" r="4" fill="blue" /><text x="858.00" y="50.00" font-size="10" fill="black">3715m</text><text x="850.00" y="365.00" font-size="9" text-anchor="middle" fill="#666">23000m</text><line x1="50.00" y1="350.00" x2="850.00" y2="350.00" stroke="red" stroke-width="1" stroke-dasharray="5,5" /></svg>